{
    "asset" : {
        "generator" : "Khronos glTF Blender I/O v1.0.5",
        "version" : "2.0"
    },
    "scene" : 0,
    "scenes" : [
        {
            "name" : "Scene",
            "nodes" : [
                0
            ]
        }
    ],
    "nodes" : [
        {
            "mesh" : 0,
            "name" : "hrudnik",
            "rotation" : [
                0,
                -0.7071067690849304,
                -0.7071067690849304,
                -3.0908619663705394e-08
            ],
            "translation" : [
                0,
                3.3939268589019775,
                1.4471018314361572
            ]
        }
    ],
    "meshes" : [
        {
            "name" : "Mesh_1.002",
            "primitives" : [
                {
                    "attributes" : {
                        "POSITION" : 0,
                        "NORMAL" : 1,
                        "TEXCOORD_0" : 2
                    },
                    "indices" : 3
                }
            ]
        }
    ],
    "accessors" : [
        {
            "bufferView" : 0,
            "componentType" : 5126,
            "count" : 23960,
            "max" : [
                11.828782081604004,
                24.743213653564453,
                10.634919166564941
            ],
            "min" : [
                -13.812451362609863,
                -43.12516784667969,
                -3.4702584743499756
            ],
            "type" : "VEC3"
        },
        {
            "bufferView" : 1,
            "componentType" : 5126,
            "count" : 23960,
            "type" : "VEC3"
        },
        {
            "bufferView" : 2,
            "componentType" : 5126,
            "count" : 23960,
            "type" : "VEC2"
        },
        {
            "bufferView" : 3,
            "componentType" : 5123,
            "count" : 83844,
            "type" : "SCALAR"
        }
    ],
    "bufferViews" : [
        {
            "buffer" : 0,
            "byteLength" : 287520,
            "byteOffset" : 0
        },
        {
            "buffer" : 0,
            "byteLength" : 287520,
            "byteOffset" : 287520
        },
        {
            "buffer" : 0,
            "byteLength" : 191680,
            "byteOffset" : 575040
        },
        {
            "buffer" : 0,
            "byteLength" : 167688,
            "byteOffset" : 766720
        }
    ],
    "buffers" : [
        {
            "byteLength" : 934408,
            "uri" : "data:application/octet-stream;base64,"
        }
    ]
}
